<svg width="396" height="118.61906469160749" viewBox="0 0 370 110.83094428256256" class="looka-1j8o68f"><defs id="SvgjsDefs2261"></defs><g id="SvgjsG2262" featurekey="symbolFeature-0" transform="matrix(1.3513331413269043,0,0,1.3513331413269043,-14.187646960516044,-8.772855269556786)" fill="#4c5d6d"><g xmlns="http://www.w3.org/2000/svg"><path d="M77.046,51.228l1.803-15.777c0.052,0.001,0.102,0.007,0.153,0.007c2.804,0,5.075-2.271,5.075-5.074   c0-2.802-2.271-5.074-5.075-5.074c-1.145,0-2.196,0.384-3.045,1.022l-8.074-9.057c1.123-1.145,1.817-2.711,1.817-4.44   c0-3.503-2.841-6.343-6.343-6.343c-3.252,0-5.929,2.448-6.297,5.601l-18.027-0.915c-0.094-2.603-2.229-4.686-4.854-4.686   c-2.686,0-4.863,2.178-4.863,4.863c0,1.516,0.693,2.869,1.781,3.76L20.061,31.267c-0.944-0.558-2.042-0.884-3.219-0.884   c-3.503,0-6.343,2.841-6.343,6.343c0,3.504,2.84,6.344,6.343,6.344c0.393,0,0.775-0.041,1.149-0.109l3.068,12.07   c-2.813,0.898-4.853,3.532-4.853,6.645c0,3.854,3.125,6.977,6.979,6.977c3.853,0,6.977-3.123,6.977-6.977   c0-2.018-0.861-3.83-2.23-5.104l18.452-22.435l6.122-0.624l17.045,20.001c-1.727,1.62-2.812,3.916-2.812,6.471   c0,4.904,3.976,8.88,8.881,8.88c4.904,0,8.88-3.976,8.88-8.88C84.5,55.565,81.272,51.911,77.046,51.228z M76.206,51.133   c-0.193-0.013-0.388-0.03-0.585-0.03c-0.626,0-1.235,0.066-1.823,0.189l-5.056-19.438l5.277-0.537   c0.378,2.032,1.966,3.639,3.99,4.041L76.206,51.133z M22.665,34.211l6.858-3.522l-0.965,4.417l-5.469,0.558   C23.004,35.157,22.863,34.669,22.665,34.211z M30.497,30.188l13.339-6.851l5.259,6.172l-3.143,3.822l-16.509,1.684L30.497,30.188z    M57.536,15.349l-13.491,6.93l-6.401-7.512c0.717-0.729,1.202-1.682,1.349-2.745l18.027,0.915   C57.034,13.792,57.214,14.607,57.536,15.349z M34.18,16.218c1.051,0,2.022-0.338,2.817-0.905l6.274,7.362l-12.54,6.441   l2.828-12.943C33.763,16.198,33.969,16.218,34.18,16.218z M44.608,22.94l13.319-6.842c0.3,0.499,0.665,0.953,1.087,1.35   l-9.373,11.396L44.608,22.94z M59.667,17.986c1.04,0.747,2.312,1.19,3.69,1.19c0.404,0,0.8-0.041,1.183-0.113l3.135,12.051   l-14.813,1.512l-2.664-3.127L59.667,17.986z M65.359,18.851c0.691-0.23,1.328-0.576,1.892-1.016l8.075,9.059   c-0.864,0.91-1.397,2.136-1.397,3.489c0,0.031,0.005,0.062,0.005,0.093l-5.407,0.552L65.359,18.851z M31.796,15.591   c0.296,0.166,0.607,0.305,0.936,0.407l-2.975,13.619l-7.484,3.844c-0.397-0.661-0.91-1.243-1.514-1.718L31.796,15.591z    M18.811,42.754c2.538-0.829,4.375-3.213,4.375-6.028c0-0.074-0.01-0.146-0.012-0.221l5.193-0.53l-4.11,18.813   c-0.351-0.055-0.706-0.091-1.071-0.091c-0.448,0-0.882,0.046-1.307,0.127L18.811,42.754z M27.279,56.032   c-0.655-0.477-1.395-0.84-2.195-1.066l4.169-19.081l15.936-1.626L27.279,56.032z M47.146,33.208l2.506-3.045l2.188,2.566   L47.146,33.208z M53.529,33.407l14.36-1.465l5.089,19.561c-1.021,0.318-1.958,0.822-2.783,1.461L53.529,33.407z"></path><path d="M39.247,67.39c-2.431-2.465-3.938-5.836-3.938-9.57c0-7.553,6.123-13.676,13.672-13.676c3.684,0,7.023,1.463,9.48,3.835   c-2.49-2.621-6.004-4.258-9.904-4.258c-7.547,0-13.67,6.123-13.67,13.675C34.887,61.347,36.565,64.897,39.247,67.39z"></path><path d="M61.583,69.558h-6.805c4.416-2.265,7.446-6.855,7.446-12.162c0-3.534-1.341-6.756-3.54-9.184   c-2.438-2.26-5.696-3.645-9.28-3.645c-7.548,0-13.671,6.122-13.671,13.674c0,3.568,1.371,6.809,3.611,9.238   c0.897,0.818,1.902,1.52,2.993,2.078h-6.805c-3.031,0-5.496,2.457-5.496,5.491l-1.938,7.966c0,1.627,0.713,3.086,1.838,4.092   c-0.877-0.973-1.415-2.258-1.415-3.669l1.938-7.966c0-3.035,2.466-5.492,5.496-5.492h6.467c0.25,0.148,0.503,0.291,0.762,0.424   h-6.806c-3.03,0-5.495,2.457-5.495,5.492l-1.938,7.965c0,1.313,0.47,2.512,1.24,3.457c0.938,0.744,2.119,1.191,3.408,1.191h29.926   c3.038,0,5.499-2.463,5.499-5.494l-1.942-7.966C67.075,72.015,64.619,69.558,61.583,69.558z"></path></g></g></svg>